<svg height="512pt" viewBox="0 0 512 512" width="512pt" xmlns="http://www.w3.org/2000/svg"><path d="m416 512h-320c-53.023438 0-96-42.976562-96-96v-320c0-53.023438 42.976562-96 96-96h320c53.023438 0 96 42.976562 96 96v320c0 53.023438-42.976562 96-96 96zm0 0" fill="#ffe6e2"/><path d="m416 512h-320c-53.023438 0-96-42.976562-96-96v-320c0-53.023438 42.976562-96 96-96h320c53.023438 0 96 42.976562 96 96v320c0 53.023438-42.976562 96-96 96zm0 0" fill="#ffe6e2"/><path d="m202.671875 181.328125c-41.183594 0-74.671875 33.503906-74.671875 74.671875s33.488281 74.671875 74.671875 74.671875 74.671875-33.488281 74.671875-74.671875-33.503906-74.671875-74.671875-74.671875zm0 106.671875c-17.648437 0-32-14.351562-32-32s14.351563-32 32-32 32 14.351562 32 32-14.351563 32-32 32zm0 0" fill="#fc573b"/><path d="m341.328125 213.328125h-52.800781c6.417968 12.878906 10.128906 27.328125 10.128906 42.671875s-3.710938 29.792969-10.128906 42.671875h52.800781c23.535156 0 42.671875-19.152344 42.671875-42.671875s-19.136719-42.671875-42.671875-42.671875zm0 0" fill="#fd907e"/></svg>